<svg width="512" height="512" viewBox="0 0 512 512" fill="none" xmlns="http://www.w3.org/2000/svg">
<path d="M393.455 302.998L259.269 397.146C257.106 398.665 254.199 398.663 252.037 397.146L117.853 302.998C115.688 301.478 114.788 298.81 115.615 296.354L166.869 144.016C167.696 141.559 170.049 139.909 172.723 139.909H338.585C341.258 139.909 343.61 141.559 344.437 144.016L395.691 296.354C396.518 298.81 395.618 301.478 393.455 302.998ZM407.396 292.681L356.141 140.343C353.663 132.974 346.607 128.023 338.585 128.023H172.723C164.699 128.023 157.645 132.974 155.165 140.343L103.91 292.681C101.433 300.048 104.126 308.059 110.618 312.613L244.802 406.761C248.047 409.039 251.85 410.176 255.653 410.176C259.456 410.176 263.259 409.037 266.504 406.761L400.69 312.613C407.18 308.059 409.874 300.048 407.396 292.681" fill="#509FEF"/>
<path d="M393.508 209.178L259.322 115.03C257.158 113.511 254.251 113.513 252.09 115.03L117.905 209.178C115.741 210.698 114.841 213.366 115.667 215.822L166.922 368.16C167.749 370.617 170.101 372.267 172.776 372.267H338.638C341.31 372.267 343.663 370.617 344.49 368.16L395.744 215.822C396.571 213.366 395.67 210.698 393.508 209.178V209.178ZM407.449 219.495L356.194 371.834C353.716 379.203 346.66 384.153 338.638 384.153H172.776C164.751 384.153 157.697 379.202 155.218 371.833L103.963 219.495C101.485 212.128 104.179 204.117 110.671 199.563L244.855 105.415C248.1 103.137 251.903 102 255.706 102C259.509 102 263.312 103.139 266.557 105.415L400.743 199.563C407.233 204.117 409.926 212.128 407.449 219.495" fill="#509FEF"/>
</svg>
